<svg width="320" height="320" viewBox="0 0 32 32" xmlns="http://www.w3.org/2000/svg" shape-rendering="crispEdges">
  <rect width="32" height="32" fill="#f7dca9"/>
  <rect x="6" y="2" width="20" height="6" fill="#5b3818"/>
  <rect x="8" y="4" width="16" height="8" fill="#6d4220"/>
  <rect x="10" y="8" width="12" height="8" fill="#f7d7b0"/>
  <rect x="8" y="10" width="4" height="4" fill="#f7d7b0"/>
  <rect x="20" y="10" width="4" height="4" fill="#f7d7b0"/>
  <rect x="12" y="12" width="2" height="2" fill="#2d1b0f"/>
  <rect x="18" y="12" width="2" height="2" fill="#2d1b0f"/>
  <rect x="14" y="15" width="4" height="1" fill="#b1653b"/>
  <rect x="10" y="18" width="12" height="6" fill="#399c7b"/>
  <rect x="12" y="24" width="8" height="6" fill="#296d57"/>
  <rect x="8" y="18" width="2" height="10" fill="#2b7564"/>
  <rect x="22" y="18" width="2" height="10" fill="#2b7564"/>
  <rect x="12" y="30" width="4" height="2" fill="#5b3818"/>
  <rect x="16" y="30" width="4" height="2" fill="#5b3818"/>
  <rect x="6" y="6" width="2" height="6" fill="#5b3818"/>
  <rect x="24" y="6" width="2" height="6" fill="#5b3818"/>
</svg>

